<svg data-v-423bf9ae="" xmlns="http://www.w3.org/2000/svg" viewBox="0 0 188.41096257737297 179" class="iconAboveSlogan"><!----><!----><!----><g data-v-423bf9ae="" id="5ca187fe-136c-4d50-a0d5-71d09c3018c0" fill="#000000" transform="matrix(5.785920989599432,0,0,5.785920989599432,10.598929574113768,85.17936427030165)"><path d="M6.10 13.45L6.10 11.58L7.14 11.58L6.67 10.09L3.49 10.09L3.02 11.58L4.12 11.58L4.12 13.45L0.18 13.45L0.18 11.58L0.96 11.58L3.78 3.09L6.52 3.09L9.28 11.58L10.04 11.58L10.04 13.45L6.10 13.45ZM5.07 4.97L4.03 8.34L6.12 8.34L5.07 4.97ZM10.96 13.45L10.96 11.58L12.02 11.58L12.02 4.97L10.96 4.97L10.96 3.08L16.02 3.09L16.02 3.09Q16.72 3.09 17.31 3.34L17.31 3.34L17.31 3.34Q17.89 3.59 18.31 4.02L18.31 4.02L18.31 4.02Q18.74 4.44 18.97 5.01L18.97 5.01L18.97 5.01Q19.21 5.58 19.21 6.23L19.21 6.23L19.21 6.23Q19.21 6.98 18.95 7.47L18.95 7.47L18.95 7.47Q18.68 7.96 18.20 8.26L18.20 8.26L18.20 8.26Q18.71 8.59 19.01 9.07L19.01 9.07L19.01 9.07Q19.30 9.56 19.30 10.25L19.30 10.25L19.30 10.25Q19.30 10.95 19.06 11.54L19.06 11.54L19.06 11.54Q18.82 12.13 18.40 12.55L18.40 12.55L18.40 12.55Q17.98 12.98 17.40 13.22L17.40 13.22L17.40 13.22Q16.83 13.45 16.17 13.45L16.17 13.45L10.96 13.45ZM16.02 9.17L14.29 9.17L14.29 11.58L16.02 11.58L16.02 11.58Q16.21 11.58 16.39 11.48L16.39 11.48L16.39 11.48Q16.56 11.38 16.69 11.21L16.69 11.21L16.69 11.21Q16.82 11.04 16.89 10.82L16.89 10.82L16.89 10.82Q16.97 10.60 16.97 10.36L16.97 10.36L16.97 10.36Q16.97 10.10 16.89 9.89L16.89 9.89L16.89 9.89Q16.82 9.67 16.69 9.51L16.69 9.51L16.69 9.51Q16.56 9.35 16.38 9.26L16.38 9.26L16.38 9.26Q16.21 9.17 16.02 9.17L16.02 9.17ZM15.92 4.97L14.29 4.97L14.29 7.29L15.92 7.29L15.92 7.29Q16.11 7.29 16.28 7.20L16.28 7.20L16.28 7.20Q16.45 7.10 16.58 6.94L16.58 6.94L16.58 6.94Q16.71 6.78 16.78 6.58L16.78 6.58L16.78 6.58Q16.86 6.38 16.86 6.16L16.86 6.16L16.86 6.16Q16.86 5.95 16.78 5.74L16.78 5.74L16.78 5.74Q16.71 5.52 16.58 5.35L16.58 5.35L16.58 5.35Q16.45 5.18 16.28 5.08L16.28 5.08L16.28 5.08Q16.11 4.97 15.92 4.97L15.92 4.97ZM20.44 4.97L20.44 3.09L24.88 3.09L24.88 4.97L23.78 4.97L23.78 11.58L26.04 11.58L26.04 11.58Q26.13 11.58 26.21 11.53L26.21 11.53L26.21 11.53Q26.30 11.48 26.36 11.40L26.36 11.40L26.36 11.40Q26.43 11.31 26.47 11.22L26.47 11.22L26.47 11.22Q26.51 11.12 26.51 11.03L26.51 11.03L26.51 9.65L28.72 9.65L28.72 13.45L20.44 13.45L20.44 11.58L21.51 11.58L21.51 4.97L20.44 4.97Z"></path></g><defs data-v-423bf9ae=""><linearGradient data-v-423bf9ae="" gradientTransform="rotate(25)" id="63a616cc-9bba-4bf7-bbe7-508854d131e6" x1="0%" y1="0%" x2="100%" y2="0%"><stop data-v-423bf9ae="" offset="0%" style="stop-color: rgb(4, 24, 4); stop-opacity: 1;"></stop><stop data-v-423bf9ae="" offset="100%" style="stop-opacity: 1;"></stop></linearGradient></defs><g data-v-423bf9ae="" id="dbae13a5-b3fe-4676-b662-6f80226a801c" transform="matrix(1.959854522110516,0,0,1.959854522110516,0.857225748572489,-49.0330628127235)" stroke="none" fill="url(#63a616cc-9bba-4bf7-bbe7-508854d131e6)"><path d="M92.064 70.96a3.995 3.995 0 0 1-2.584-.944L69.977 53.532a3.989 3.989 0 0 1-1.416-3.056V34.004h-4v6.58a4 4 0 0 1-2.381 3.656 4.01 4.01 0 0 1-4.308-.688L47.74 34.384 6.548 69.988a4.01 4.01 0 0 1-5.64-.412 4.007 4.007 0 0 1 .412-5.648l43.868-37.916a4.001 4.001 0 0 1 5.3.06l6.08 5.496v-1.564a4 4 0 0 1 4-4h12c2.207 0 4 1.792 4 4V48.62l18.084 15.288a3.992 3.992 0 0 1 .468 5.636 3.984 3.984 0 0 1-3.056 1.416z"></path></g><!----><g data-v-423bf9ae="" id="3d4d8582-0ff8-4e11-9311-1f47ddaba686" fill="#000000" transform="matrix(0.357197836993521,0,0,0.357197836993521,33.32044759882128,205.29137742464823)"><path d="M0.38 12.39C0.38 12.63 0.38 12.68 0.57 12.68C0.74 12.68 1.06 12.64 1.64 12.64C2.25 12.64 2.80 12.68 2.95 12.68C3.12 12.68 3.12 12.61 3.12 12.40C3.12 12.24 3.12 12.18 2.95 12.18L1.88 12.18C1.88 12.18 1.86 12.18 1.86 12.17C1.88 11.87 2.65 9.90 3.00 9.02C3.07 8.83 3.08 8.79 3.29 8.79L6.12 8.79C6.26 8.79 6.26 8.81 6.33 9.03C6.59 9.77 7.31 11.89 7.31 12.17C7.31 12.18 7.29 12.18 7.29 12.18L6.52 12.18C6.30 12.18 6.29 12.19 6.29 12.39C6.29 12.63 6.30 12.68 6.47 12.68C6.79 12.68 7.66 12.64 8.08 12.64C8.50 12.64 9.17 12.68 9.38 12.68C9.52 12.68 9.53 12.61 9.53 12.40C9.53 12.24 9.52 12.18 9.38 12.18L8.89 12.18C8.79 12.18 7.77 9.34 7.21 7.78L5.53 3.07C5.52 3.00 5.45 2.94 5.36 2.94C5.24 2.94 5.14 3.16 5.05 3.35C4.90 3.71 4.66 3.84 4.55 4.13L3.07 7.57C2.88 8.01 1.18 12.18 1.05 12.18L0.63 12.18C0.41 12.18 0.38 12.19 0.38 12.39ZM3.28 8.33C3.28 8.30 3.30 8.23 3.35 8.13L4.72 4.77C4.76 4.66 4.79 4.61 4.82 4.61C4.83 4.61 4.84 4.63 4.89 4.77L6.05 8.18C6.08 8.25 6.09 8.29 6.09 8.32C6.09 8.36 6.06 8.37 5.96 8.37L3.46 8.37C3.28 8.37 3.28 8.34 3.28 8.33ZM17.29 12.39C17.29 12.63 17.32 12.68 17.51 12.68C17.84 12.68 18.80 12.64 19.22 12.64C19.64 12.64 24.00 12.68 24.32 12.68C24.58 12.68 24.65 12.66 24.67 12.49C24.72 12.08 24.96 10.72 24.96 10.60C24.96 10.47 24.81 10.44 24.64 10.43C24.54 10.42 24.46 10.46 24.44 10.56L24.28 11.76C24.23 12.05 24.22 12.03 24.00 12.04C23.84 12.05 21.34 12.12 19.91 12.12C19.87 12.12 19.82 11.38 19.82 10.54L19.82 6.66C19.82 5.40 19.84 3.70 19.94 3.70L20.92 3.70C21.15 3.70 21.18 3.63 21.18 3.44C21.18 3.23 21.17 3.19 20.93 3.19C20.61 3.19 19.67 3.23 19.25 3.23C18.83 3.23 17.89 3.19 17.67 3.19C17.44 3.19 17.39 3.22 17.39 3.44C17.39 3.65 17.43 3.70 17.63 3.70L18.45 3.70C18.49 3.70 18.52 4.23 18.52 4.90L18.52 8.13C18.52 10.07 18.49 12.18 18.41 12.18L17.57 12.18C17.35 12.18 17.29 12.21 17.29 12.39ZM32.58 12.39C32.58 12.63 32.61 12.68 32.80 12.68C33.12 12.68 34.09 12.64 34.51 12.64C34.93 12.64 39.28 12.68 39.61 12.68C39.87 12.68 39.94 12.66 39.96 12.49C40.01 12.08 40.25 10.72 40.25 10.60C40.25 10.47 40.10 10.44 39.93 10.43C39.83 10.42 39.75 10.46 39.73 10.56L39.56 11.76C39.52 12.05 39.51 12.03 39.28 12.04C39.13 12.05 36.62 12.12 35.20 12.12C35.15 12.12 35.11 11.38 35.11 10.54L35.11 6.66C35.11 5.40 35.13 3.70 35.22 3.70L36.20 3.70C36.44 3.70 36.47 3.63 36.47 3.44C36.47 3.23 36.46 3.19 36.22 3.19C35.90 3.19 34.96 3.23 34.54 3.23C34.12 3.23 33.18 3.19 32.96 3.19C32.73 3.19 32.68 3.22 32.68 3.44C32.68 3.65 32.72 3.70 32.91 3.70L33.74 3.70C33.78 3.70 33.81 4.23 33.81 4.90L33.81 8.13C33.81 10.07 33.78 12.18 33.70 12.18L32.86 12.18C32.63 12.18 32.58 12.21 32.58 12.39ZM57.67 3.51C57.67 3.75 57.75 3.79 57.92 3.79L58.77 3.77C58.83 3.77 58.88 5.52 58.88 7.11L58.88 11.63C58.88 11.93 58.87 12.18 58.84 12.18L58.11 12.18C57.89 12.18 57.82 12.19 57.82 12.39C57.82 12.63 57.85 12.68 58.04 12.68C58.17 12.68 59.12 12.64 59.54 12.64C59.72 12.64 60.24 12.67 60.89 12.67C62.44 12.67 64.85 12.43 64.85 10.23C64.85 8.27 63.03 7.94 62.34 7.84C62.26 7.83 62.24 7.83 62.24 7.81C62.24 7.80 62.29 7.78 62.36 7.76C63 7.52 64.44 6.90 64.44 5.54C64.44 3.81 62.97 3.25 61.29 3.25C60.72 3.25 60.12 3.29 59.57 3.29C59.15 3.29 58.14 3.26 57.92 3.26C57.74 3.26 57.67 3.28 57.67 3.51ZM60.12 8.19C60.12 8.12 60.12 8.08 60.23 8.08L60.70 8.08C61.32 8.08 61.96 8.09 62.34 8.22C63.21 8.51 63.53 9.16 63.53 10.14C63.53 11.17 63.07 12.18 61.05 12.18L60.21 12.18C60.13 12.18 60.12 9.02 60.12 8.19ZM60.12 7.59L60.12 6.92C60.12 5.87 60.13 3.71 60.17 3.68C60.23 3.65 60.54 3.63 60.75 3.63C62.16 3.63 63.18 4.41 63.18 5.77C63.18 6.92 62.45 7.46 61.82 7.66C61.74 7.69 61.64 7.70 61.56 7.70C61.47 7.70 61.33 7.69 61.10 7.69L60.30 7.69C60.12 7.69 60.12 7.67 60.12 7.59ZM72.95 3.51C72.95 3.75 73.04 3.77 73.21 3.77L73.74 3.77C73.79 3.77 73.79 4.12 73.79 4.55C73.79 5.66 73.78 8.96 73.78 9.42C73.78 11.13 74.03 12.80 76.89 12.80C77.97 12.80 79.13 12.38 79.79 12.00C80.04 11.86 80.33 11.72 80.42 11.72C80.68 11.72 80.95 12.74 81.28 12.74C81.61 12.74 81.62 12.35 81.62 12.25C81.62 11.96 81.68 10.08 81.72 8.16C81.77 6.12 81.76 3.77 81.87 3.77L82.19 3.77C82.42 3.77 82.49 3.75 82.49 3.56C82.49 3.32 82.45 3.26 82.25 3.26C82.11 3.26 81.58 3.30 81.16 3.30C80.74 3.30 79.94 3.26 79.72 3.26C79.53 3.26 79.44 3.28 79.44 3.51C79.44 3.75 79.55 3.77 79.72 3.77L80.42 3.77C80.49 3.77 80.50 4.30 80.50 4.87L80.50 9.14C80.50 11.19 80.50 11.12 80.16 11.34C79.77 11.61 78.96 12.08 77.78 12.08C75.81 12.08 75.01 11.17 75.01 9.41C75.01 8.82 75.08 3.77 75.19 3.77L76.10 3.77C76.33 3.77 76.37 3.75 76.37 3.56C76.37 3.32 76.36 3.26 76.16 3.26C75.84 3.26 74.96 3.30 74.54 3.30C74.12 3.30 73.43 3.26 73.21 3.26C73.02 3.26 72.95 3.28 72.95 3.51ZM90.38 12.39C90.38 12.63 90.43 12.68 90.62 12.68C90.94 12.68 91.70 12.64 92.41 12.64C93.07 12.64 93.87 12.68 94.09 12.68C94.26 12.68 94.29 12.61 94.29 12.40C94.29 12.24 94.26 12.18 94.09 12.18L93.13 12.18C93.03 12.18 93.00 9.55 93.00 7.76L93.00 5.87C93.00 5.14 93.03 3.70 93.13 3.70L94.04 3.70C94.26 3.70 94.29 3.68 94.29 3.49C94.29 3.25 94.26 3.19 94.09 3.19C93.77 3.19 93.10 3.23 92.44 3.23C91.63 3.23 90.92 3.19 90.69 3.19C90.51 3.19 90.44 3.21 90.44 3.44C90.44 3.68 90.52 3.70 90.69 3.70L91.62 3.70C91.66 3.70 91.73 4.79 91.73 5.71L91.73 7.08C91.73 8.92 91.71 12.18 91.60 12.18L90.68 12.18C90.45 12.18 90.38 12.19 90.38 12.39ZM102.19 12.39C102.19 12.63 102.21 12.68 102.41 12.68C102.73 12.68 103.70 12.64 104.12 12.64C104.54 12.64 108.89 12.68 109.21 12.68C109.48 12.68 109.55 12.66 109.56 12.49C109.62 12.08 109.86 10.72 109.86 10.60C109.86 10.47 109.70 10.44 109.54 10.43C109.44 10.42 109.35 10.46 109.34 10.56L109.17 11.76C109.13 12.05 109.12 12.03 108.89 12.04C108.74 12.05 106.23 12.12 104.80 12.12C104.76 12.12 104.72 11.38 104.72 10.54L104.72 6.66C104.72 5.40 104.73 3.70 104.83 3.70L105.81 3.70C106.05 3.70 106.08 3.63 106.08 3.44C106.08 3.23 106.06 3.19 105.83 3.19C105.50 3.19 104.57 3.23 104.15 3.23C103.73 3.23 102.79 3.19 102.56 3.19C102.34 3.19 102.28 3.22 102.28 3.44C102.28 3.65 102.33 3.70 102.52 3.70L103.35 3.70C103.39 3.70 103.42 4.23 103.42 4.90L103.42 8.13C103.42 10.07 103.39 12.18 103.31 12.18L102.47 12.18C102.24 12.18 102.19 12.21 102.19 12.39ZM117.40 12.46C117.40 12.63 117.42 12.70 117.60 12.70C117.75 12.70 118.99 12.64 119.38 12.64C120.23 12.64 121.11 12.70 121.97 12.70C124.59 12.70 126.98 11.07 126.98 7.91C126.98 4.89 124.64 3.07 121.60 3.07C121.04 3.07 119.78 3.23 118.75 3.23C118.27 3.23 117.81 3.22 117.75 3.22C117.57 3.22 117.56 3.32 117.56 3.49C117.56 3.68 117.63 3.70 117.75 3.70L118.72 3.67C118.75 3.67 118.75 4.20 118.75 4.72C118.75 5.91 118.66 12.21 118.58 12.21L117.68 12.21C117.50 12.21 117.40 12.22 117.40 12.46ZM119.98 11.40C119.98 9.46 119.98 7.52 119.99 5.60C119.99 5.03 120.04 3.61 120.08 3.60C120.37 3.53 120.96 3.51 121.31 3.51C123.87 3.51 125.48 5.75 125.48 7.73C125.48 8.95 125.44 12.25 120.76 12.25C120.50 12.25 120.09 12.25 119.99 12.21C119.98 12.19 119.98 11.79 119.98 11.40ZM134.95 12.39C134.95 12.63 134.99 12.68 135.18 12.68C135.51 12.68 136.26 12.64 136.98 12.64C137.63 12.64 138.43 12.68 138.66 12.68C138.82 12.68 138.85 12.61 138.85 12.40C138.85 12.24 138.82 12.18 138.66 12.18L137.69 12.18C137.59 12.18 137.56 9.55 137.56 7.76L137.56 5.87C137.56 5.14 137.59 3.70 137.69 3.70L138.60 3.70C138.82 3.70 138.85 3.68 138.85 3.49C138.85 3.25 138.82 3.19 138.66 3.19C138.33 3.19 137.66 3.23 137.00 3.23C136.19 3.23 135.48 3.19 135.25 3.19C135.07 3.19 135.00 3.21 135.00 3.44C135.00 3.68 135.09 3.70 135.25 3.70L136.18 3.70C136.22 3.70 136.29 4.79 136.29 5.71L136.29 7.08C136.29 8.92 136.28 12.18 136.16 12.18L135.24 12.18C135.02 12.18 134.95 12.19 134.95 12.39ZM146.75 12.39C146.75 12.63 146.76 12.68 146.96 12.68C147.14 12.68 147.52 12.64 148.13 12.64C148.76 12.64 149.32 12.68 149.65 12.68C149.81 12.68 149.81 12.61 149.81 12.40C149.81 12.24 149.81 12.18 149.65 12.18L148.44 12.18C148.40 12.18 148.39 11.54 148.39 10.79C148.39 9.46 148.40 7.48 148.40 5.99C148.40 5.25 148.40 4.84 148.41 4.28C148.41 4.02 148.48 4.14 148.61 4.28L155.50 12.66C155.58 12.75 155.67 12.89 155.78 12.89C155.89 12.89 155.96 12.77 155.96 12.54C155.96 12.39 156.13 6.65 156.14 4.48C156.14 4.06 156.17 3.70 156.20 3.70L156.83 3.70C157.05 3.70 157.11 3.68 157.11 3.49C157.11 3.25 157.11 3.19 156.91 3.19C156.72 3.19 156.28 3.23 155.72 3.23C155.11 3.23 154.31 3.19 154.21 3.19C154.04 3.19 154.04 3.26 154.04 3.47C154.04 3.64 154.04 3.70 154.21 3.70L155.51 3.70C155.53 3.70 155.53 4.33 155.53 4.44C155.53 5.85 155.55 8.33 155.55 9.70L155.55 10.29C155.55 10.57 155.54 10.65 155.32 10.37L149.63 3.39C149.52 3.25 149.49 3.19 149.32 3.19C149.24 3.19 148.86 3.23 148.55 3.23C148.26 3.23 147.18 3.19 146.99 3.19C146.82 3.19 146.79 3.26 146.79 3.47C146.79 3.64 146.82 3.70 146.99 3.70L147.90 3.70C147.90 4.17 147.85 8.53 147.78 10.79C147.76 11.69 147.77 12.18 147.66 12.18L147.01 12.18C146.79 12.18 146.75 12.19 146.75 12.39ZM165.21 7.91C165.21 11.40 167.58 12.89 170.17 12.89C172.06 12.89 174.06 11.89 174.06 11.58C174.06 11.12 174.08 10.68 174.08 10.33C174.08 9.81 174.09 9.56 174.22 9.56L174.65 9.56C174.79 9.56 174.80 9.39 174.80 9.30C174.80 9.18 174.79 9.06 174.65 9.06C174.43 9.06 174.06 9.10 173.39 9.10C172.94 9.10 172.20 9.07 171.51 9.06C171.37 9.06 171.37 9.24 171.37 9.35C171.37 9.45 171.40 9.56 171.53 9.56L172.75 9.56C172.79 9.56 172.84 9.87 172.84 10.33C172.84 10.82 172.83 11.41 172.80 11.65C172.79 11.76 172.14 12.39 170.56 12.39C168.32 12.39 166.73 10.29 166.73 7.94C166.73 5.42 168.28 3.54 170.28 3.54C172.17 3.54 173.35 4.87 173.35 5.03C173.35 5.15 173.29 6.12 173.29 6.17C173.29 6.31 173.33 6.36 173.60 6.36C173.80 6.36 173.87 6.33 173.87 6.15C173.87 5.43 173.91 3.75 173.91 3.56C173.91 3.36 173.81 3.33 173.60 3.33C173.38 3.33 173.35 3.39 173.35 3.56L173.35 3.91C173.35 3.99 173.31 4.02 173.18 3.92C172.90 3.72 171.91 3.08 170.34 3.08C167.50 3.08 165.21 4.79 165.21 7.91ZM192.64 12.39C192.64 12.63 192.67 12.68 192.86 12.68C193.19 12.68 194.15 12.64 194.57 12.64C194.99 12.64 199.35 12.68 199.67 12.68C199.93 12.68 200.00 12.66 200.02 12.49C200.07 12.08 200.31 10.72 200.31 10.60C200.31 10.47 200.16 10.44 199.99 10.43C199.89 10.42 199.81 10.46 199.79 10.56L199.63 11.76C199.58 12.05 199.57 12.03 199.35 12.04C199.19 12.05 196.69 12.12 195.26 12.12C195.22 12.12 195.17 11.38 195.17 10.54L195.17 6.66C195.17 5.40 195.19 3.70 195.29 3.70L196.27 3.70C196.50 3.70 196.53 3.63 196.53 3.44C196.53 3.23 196.52 3.19 196.28 3.19C195.96 3.19 195.02 3.23 194.60 3.23C194.18 3.23 193.24 3.19 193.02 3.19C192.79 3.19 192.74 3.22 192.74 3.44C192.74 3.65 192.78 3.70 192.98 3.70L193.80 3.70C193.84 3.70 193.87 4.23 193.87 4.90L193.87 8.13C193.87 10.07 193.84 12.18 193.76 12.18L192.92 12.18C192.70 12.18 192.64 12.21 192.64 12.39ZM207.86 8.15C207.86 11.17 210.20 12.80 212.45 12.80C215.24 12.80 217.21 10.89 217.21 8.06C217.21 5.33 215.46 3.11 212.66 3.11C210.06 3.11 207.86 5.10 207.86 8.15ZM209.26 7.77C209.26 5.64 210.55 3.58 212.52 3.58C214.76 3.58 215.84 5.81 215.84 7.94C215.84 10.08 214.73 12.32 212.46 12.32C210.48 12.32 209.26 10.28 209.26 7.77ZM225.32 12.39C225.32 12.63 225.33 12.68 225.53 12.68C225.71 12.68 226.09 12.64 226.70 12.64C227.33 12.64 227.89 12.68 228.21 12.68C228.38 12.68 228.38 12.61 228.38 12.40C228.38 12.24 228.38 12.18 228.21 12.18L227.01 12.18C226.97 12.18 226.95 11.54 226.95 10.79C226.95 9.46 226.97 7.48 226.97 5.99C226.97 5.25 226.97 4.84 226.98 4.28C226.98 4.02 227.05 4.14 227.18 4.28L234.07 12.66C234.15 12.75 234.23 12.89 234.35 12.89C234.46 12.89 234.53 12.77 234.53 12.54C234.53 12.39 234.70 6.65 234.71 4.48C234.71 4.06 234.74 3.70 234.77 3.70L235.40 3.70C235.62 3.70 235.68 3.68 235.68 3.49C235.68 3.25 235.68 3.19 235.48 3.19C235.28 3.19 234.85 3.23 234.29 3.23C233.67 3.23 232.88 3.19 232.78 3.19C232.61 3.19 232.61 3.26 232.61 3.47C232.61 3.64 232.61 3.70 232.78 3.70L234.08 3.70C234.09 3.70 234.09 4.33 234.09 4.44C234.09 5.85 234.12 8.33 234.12 9.70L234.12 10.29C234.12 10.57 234.11 10.65 233.88 10.37L228.20 3.39C228.09 3.25 228.06 3.19 227.89 3.19C227.81 3.19 227.43 3.23 227.12 3.23C226.83 3.23 225.75 3.19 225.55 3.19C225.39 3.19 225.36 3.26 225.36 3.47C225.36 3.64 225.39 3.70 225.55 3.70L226.46 3.70C226.46 4.17 226.42 8.53 226.35 10.79C226.32 11.69 226.34 12.18 226.23 12.18L225.58 12.18C225.36 12.18 225.32 12.19 225.32 12.39ZM243.64 12.46C243.64 12.63 243.66 12.70 243.84 12.70C243.99 12.70 245.22 12.64 245.62 12.64C246.47 12.64 247.35 12.70 248.21 12.70C250.82 12.70 253.22 11.07 253.22 7.91C253.22 4.89 250.88 3.07 247.84 3.07C247.28 3.07 246.02 3.23 244.99 3.23C244.51 3.23 244.05 3.22 243.99 3.22C243.81 3.22 243.80 3.32 243.80 3.49C243.80 3.68 243.87 3.70 243.99 3.70L244.96 3.67C244.99 3.67 244.99 4.20 244.99 4.72C244.99 5.91 244.90 12.21 244.82 12.21L243.92 12.21C243.74 12.21 243.64 12.22 243.64 12.46ZM246.22 11.40C246.22 9.46 246.22 7.52 246.23 5.60C246.23 5.03 246.27 3.61 246.32 3.60C246.61 3.53 247.20 3.51 247.55 3.51C250.11 3.51 251.72 5.75 251.72 7.73C251.72 8.95 251.68 12.25 247.00 12.25C246.74 12.25 246.33 12.25 246.23 12.21C246.22 12.19 246.22 11.79 246.22 11.40ZM261.39 8.15C261.39 11.17 263.73 12.80 265.99 12.80C268.77 12.80 270.75 10.89 270.75 8.06C270.75 5.33 269.00 3.11 266.20 3.11C263.59 3.11 261.39 5.10 261.39 8.15ZM262.79 7.77C262.79 5.64 264.08 3.58 266.06 3.58C268.30 3.58 269.37 5.81 269.37 7.94C269.37 10.08 268.27 12.32 266.00 12.32C264.01 12.32 262.79 10.28 262.79 7.77ZM278.85 12.39C278.85 12.63 278.87 12.68 279.06 12.68C279.24 12.68 279.62 12.64 280.24 12.64C280.87 12.64 281.43 12.68 281.75 12.68C281.92 12.68 281.92 12.61 281.92 12.40C281.92 12.24 281.92 12.18 281.75 12.18L280.55 12.18C280.50 12.18 280.49 11.54 280.49 10.79C280.49 9.46 280.50 7.48 280.50 5.99C280.50 5.25 280.50 4.84 280.52 4.28C280.52 4.02 280.59 4.14 280.71 4.28L287.60 12.66C287.69 12.75 287.77 12.89 287.88 12.89C287.99 12.89 288.06 12.77 288.06 12.54C288.06 12.39 288.23 6.65 288.25 4.48C288.25 4.06 288.27 3.70 288.30 3.70L288.93 3.70C289.16 3.70 289.21 3.68 289.21 3.49C289.21 3.25 289.21 3.19 289.02 3.19C288.82 3.19 288.39 3.23 287.83 3.23C287.21 3.23 286.41 3.19 286.31 3.19C286.15 3.19 286.15 3.26 286.15 3.47C286.15 3.64 286.15 3.70 286.31 3.70L287.62 3.70C287.63 3.70 287.63 4.33 287.63 4.44C287.63 5.85 287.66 8.33 287.66 9.70L287.66 10.29C287.66 10.57 287.64 10.65 287.42 10.37L281.74 3.39C281.62 3.25 281.60 3.19 281.43 3.19C281.34 3.19 280.97 3.23 280.66 3.23C280.36 3.23 279.29 3.19 279.09 3.19C278.92 3.19 278.89 3.26 278.89 3.47C278.89 3.64 278.92 3.70 279.09 3.70L280.00 3.70C280.00 4.17 279.96 8.53 279.89 10.79C279.86 11.69 279.87 12.18 279.76 12.18L279.12 12.18C278.89 12.18 278.85 12.19 278.85 12.39ZM307.05 12.39C307.05 12.63 307.08 12.68 307.27 12.68C307.59 12.68 308.56 12.64 308.98 12.64C309.40 12.64 313.75 12.68 314.08 12.68C314.34 12.68 314.41 12.66 314.43 12.49C314.48 12.08 314.72 10.72 314.72 10.60C314.72 10.47 314.57 10.44 314.40 10.43C314.30 10.42 314.22 10.46 314.20 10.56L314.03 11.76C313.99 12.05 313.98 12.03 313.75 12.04C313.60 12.05 311.09 12.12 309.67 12.12C309.62 12.12 309.58 11.38 309.58 10.54L309.58 6.66C309.58 5.40 309.60 3.70 309.69 3.70L310.67 3.70C310.91 3.70 310.94 3.63 310.94 3.44C310.94 3.23 310.93 3.19 310.69 3.19C310.37 3.19 309.43 3.23 309.01 3.23C308.59 3.23 307.65 3.19 307.43 3.19C307.20 3.19 307.15 3.22 307.15 3.44C307.15 3.65 307.19 3.70 307.38 3.70L308.21 3.70C308.25 3.70 308.28 4.23 308.28 4.90L308.28 8.13C308.28 10.07 308.25 12.18 308.17 12.18L307.33 12.18C307.10 12.18 307.05 12.21 307.05 12.39ZM320.67 5.01C320.67 5.17 320.85 5.17 320.98 5.17C321.13 5.17 321.17 5.15 321.19 4.97L321.30 3.89C321.31 3.81 321.86 3.75 322.62 3.75L324.60 3.75C324.66 3.75 324.69 4.35 324.69 4.97C324.69 6.43 324.63 12.18 324.51 12.18L323.64 12.18C323.41 12.18 323.37 12.19 323.37 12.39C323.37 12.63 323.39 12.68 323.58 12.68C323.90 12.68 324.88 12.64 325.30 12.64C325.72 12.64 326.66 12.68 326.98 12.68C327.15 12.68 327.18 12.61 327.18 12.40C327.18 12.24 327.15 12.18 326.98 12.18L325.99 12.18C325.96 12.18 325.96 11.76 325.96 11.31C325.96 9.56 326.05 5.96 326.05 5.92C326.06 5.18 326.06 3.75 326.16 3.75L327.77 3.75C328.48 3.75 329.31 3.78 329.31 3.85C329.31 3.99 329.27 4.90 329.27 4.97C329.27 5.12 329.34 5.17 329.52 5.17C329.71 5.17 329.78 5.17 329.78 5.03C329.78 3.93 329.84 3.40 329.84 3.14C329.84 2.94 329.76 2.94 329.56 2.94C329.41 2.94 329.35 2.98 329.34 3.16C329.34 3.23 328.69 3.28 327.85 3.28L322.85 3.28C322.20 3.28 321.38 3.28 321.38 3.21L321.38 3.07C321.38 2.94 321.26 2.94 321.16 2.94C320.94 2.94 320.91 3.00 320.89 3.19C320.84 3.89 320.67 4.97 320.67 5.01ZM337.53 12.46C337.53 12.63 337.54 12.70 337.72 12.70C337.88 12.70 339.11 12.64 339.50 12.64C340.35 12.64 341.24 12.70 342.09 12.70C344.71 12.70 347.10 11.07 347.10 7.91C347.10 4.89 344.76 3.07 341.73 3.07C341.17 3.07 339.91 3.23 338.87 3.23C338.39 3.23 337.93 3.22 337.88 3.22C337.69 3.22 337.68 3.32 337.68 3.49C337.68 3.68 337.75 3.70 337.88 3.70L338.84 3.67C338.87 3.67 338.87 4.20 338.87 4.72C338.87 5.91 338.79 12.21 338.70 12.21L337.81 12.21C337.62 12.21 337.53 12.22 337.53 12.46ZM340.10 11.40C340.10 9.46 340.10 7.52 340.12 5.60C340.12 5.03 340.16 3.61 340.20 3.60C340.49 3.53 341.08 3.51 341.43 3.51C343.99 3.51 345.60 5.75 345.60 7.73C345.60 8.95 345.56 12.25 340.89 12.25C340.62 12.25 340.21 12.25 340.12 12.21C340.10 12.19 340.10 11.79 340.10 11.40Z"></path></g></svg>