<svg data-v-fde0c5aa="" xmlns="http://www.w3.org/2000/svg" viewBox="0 0 300 300" class="font"><!----><defs data-v-fde0c5aa=""><!----></defs><rect data-v-fde0c5aa="" fill="transparent" x="0" y="0" width="300px" height="300px" class="logo-background-square"></rect><defs data-v-fde0c5aa=""><linearGradient data-v-fde0c5aa="" gradientTransform="rotate(25)" id="4277e8a2-5953-4fb1-9b31-f7dbbd5f558a" x1="0%" y1="0%" x2="100%" y2="0%"><stop data-v-fde0c5aa="" offset="0%" stop-color="#041804" stop-opacity="1"></stop><stop data-v-fde0c5aa="" offset="100%" stop-opacity="1"></stop></linearGradient></defs><g data-v-fde0c5aa="" id="c5b9901a-620d-4112-85cf-c13d6904c104" fill="url(#4277e8a2-5953-4fb1-9b31-f7dbbd5f558a)" transform="matrix(7.708479595144855,0,0,7.708479595144855,38.61247361773859,86.28941717532084)"><path d="M6.10 13.45L6.10 11.58L7.14 11.58L6.67 10.09L3.49 10.09L3.02 11.58L4.12 11.58L4.12 13.45L0.18 13.45L0.18 11.58L0.96 11.58L3.78 3.09L6.52 3.09L9.28 11.58L10.04 11.58L10.04 13.45L6.10 13.45ZM5.07 4.97L4.03 8.34L6.12 8.34L5.07 4.97ZM10.96 13.45L10.96 11.58L12.02 11.58L12.02 4.97L10.96 4.97L10.96 3.08L16.02 3.09L16.02 3.09Q16.72 3.09 17.31 3.34L17.31 3.34L17.31 3.34Q17.89 3.59 18.31 4.02L18.31 4.02L18.31 4.02Q18.74 4.44 18.97 5.01L18.97 5.01L18.97 5.01Q19.21 5.58 19.21 6.23L19.21 6.23L19.21 6.23Q19.21 6.98 18.95 7.47L18.95 7.47L18.95 7.47Q18.68 7.96 18.20 8.26L18.20 8.26L18.20 8.26Q18.71 8.59 19.01 9.07L19.01 9.07L19.01 9.07Q19.30 9.56 19.30 10.25L19.30 10.25L19.30 10.25Q19.30 10.95 19.06 11.54L19.06 11.54L19.06 11.54Q18.82 12.13 18.40 12.55L18.40 12.55L18.40 12.55Q17.98 12.98 17.40 13.22L17.40 13.22L17.40 13.22Q16.83 13.45 16.17 13.45L16.17 13.45L10.96 13.45ZM16.02 9.17L14.29 9.17L14.29 11.58L16.02 11.58L16.02 11.58Q16.21 11.58 16.39 11.48L16.39 11.48L16.39 11.48Q16.56 11.38 16.69 11.21L16.69 11.21L16.69 11.21Q16.82 11.04 16.89 10.82L16.89 10.82L16.89 10.82Q16.97 10.60 16.97 10.36L16.97 10.36L16.97 10.36Q16.97 10.10 16.89 9.89L16.89 9.89L16.89 9.89Q16.82 9.67 16.69 9.51L16.69 9.51L16.69 9.51Q16.56 9.35 16.38 9.26L16.38 9.26L16.38 9.26Q16.21 9.17 16.02 9.17L16.02 9.17ZM15.92 4.97L14.29 4.97L14.29 7.29L15.92 7.29L15.92 7.29Q16.11 7.29 16.28 7.20L16.28 7.20L16.28 7.20Q16.45 7.10 16.58 6.94L16.58 6.94L16.58 6.94Q16.71 6.78 16.78 6.58L16.78 6.58L16.78 6.58Q16.86 6.38 16.86 6.16L16.86 6.16L16.86 6.16Q16.86 5.95 16.78 5.74L16.78 5.74L16.78 5.74Q16.71 5.52 16.58 5.35L16.58 5.35L16.58 5.35Q16.45 5.18 16.28 5.08L16.28 5.08L16.28 5.08Q16.11 4.97 15.92 4.97L15.92 4.97ZM20.44 4.97L20.44 3.09L24.88 3.09L24.88 4.97L23.78 4.97L23.78 11.58L26.04 11.58L26.04 11.58Q26.13 11.58 26.21 11.53L26.21 11.53L26.21 11.53Q26.30 11.48 26.36 11.40L26.36 11.40L26.36 11.40Q26.43 11.31 26.47 11.22L26.47 11.22L26.47 11.22Q26.51 11.12 26.51 11.03L26.51 11.03L26.51 9.65L28.72 9.65L28.72 13.45L20.44 13.45L20.44 11.58L21.51 11.58L21.51 4.97L20.44 4.97Z"></path></g><!----><!----></svg>